# xmcd
#
# Track frame offsets:
#	180
#	16214
#	32614
#	43354
#	59973
#	78024
#	88281
#	109445
#	124468
#	149408
#	159293
#	171838
#
# Disc length: 2641 seconds
#
# Revision: 0
# Processed by: cddbd v1.5PL3 Copyright (c) Steve Scherf et al.
# Submitted via: dBpowerAMP V4.0
#
DISCID=ab0a4f0c
DTITLE=Rob Belvins - Juxtaposition
DYEAR=1900
DGENRE=Country
TTITLE0=Red-Headed Women
TTITLE1=Light Of Day
TTITLE2=Think About You
TTITLE3=When She Flies
TTITLE4=Baby's Eyes
TTITLE5=She Walks Away
TTITLE6=Dance With A River
TTITLE7=Front Loader Finale
TTITLE8=Ballad Of The Ugly Bar People
TTITLE9=DUI
TTITLE10=Lawyers Suck
TTITLE11=You Ain't Near As Ugly
EXTD=
EXTT0=
EXTT1=
EXTT2=
EXTT3=
EXTT4=
EXTT5=
EXTT6=
EXTT7=
EXTT8=
EXTT9=
EXTT10=
EXTT11=
PLAYORDER=
